<svg width="64" height="64" viewBox="0 0 64 64" fill="none" xmlns="http://www.w3.org/2000/svg">
<path d="M38 45.2053V10.8106C36.5787 11.504 35.184 12.5973 33.6 13.9093L33.1707 14.2666C31.1813 15.92 28.84 17.872 26 18.8053V53.2026C27.424 52.5066 28.816 51.4133 30.4 50.104L30.8293 49.744C32.8187 48.0906 35.16 46.1413 38 45.2053ZM48.912 8.01596C49.7307 8.34396 50.4747 8.64263 51.184 8.88529L51.2827 8.91996C52.5173 9.34663 53.6027 9.71996 54.4613 10.136C55.3973 10.5866 56.2427 11.1626 56.888 12.088C57.528 13.0053 57.7787 14.0026 57.8933 15.04C58 16.008 58 17.184 58 18.536V41.2133C58 43.1493 58 44.7706 57.856 46.048C57.7093 47.368 57.3787 48.664 56.4533 49.7146C55.8982 50.3392 55.2212 50.8438 54.464 51.1973C53.0373 51.856 51.5813 51.872 50.2667 51.6453C48.9787 51.424 47.7067 50.944 46.5867 50.48C46.2133 50.3253 45.856 50.1751 45.5147 50.0293C44.768 49.712 44.0853 49.4213 43.384 49.176C42.3867 48.8213 41.6053 48.6586 40.9787 48.68C40.5873 48.6906 40.1983 48.7442 39.8187 48.84C37.5067 49.408 35.5547 51.024 33.1413 53.0266L32.9493 53.184C30.6187 55.1146 27.7947 57.4186 24.1547 57.9226C23.0133 58.0826 21.5547 57.9813 20.0827 57.7573C18.4536 57.4989 16.8451 57.1247 15.2693 56.6373C13.6651 56.1561 12.1098 55.5249 10.624 54.752C9.27733 54.0346 7.936 53.1066 7.112 51.9253C6.472 51.0053 6.22133 50.008 6.10667 48.9706C6 48.0026 6 46.8293 6 45.4746V22.7973C6 20.8613 6 19.24 6.144 17.9626C6.29067 16.6426 6.62133 15.3466 7.54667 14.296C8.10133 13.6693 8.776 13.1626 9.536 12.8133C10.9627 12.1546 12.4187 12.1386 13.7333 12.3653C15.0213 12.5893 16.2933 13.0666 17.4133 13.5306C17.7867 13.6853 18.144 13.8355 18.4853 13.9813C19.232 14.3013 19.9147 14.5893 20.616 14.8346C21.616 15.1893 22.3947 15.3546 23.0213 15.3306C23.4124 15.3164 23.7991 15.2631 24.1813 15.1706C26.4933 14.6026 28.4453 12.9866 30.8587 10.984L31.0507 10.8266C33.3813 8.89863 36.2053 6.59463 39.8453 6.08796C42.0267 5.78663 44.184 6.30663 46.048 6.93329C46.992 7.25329 47.92 7.62129 48.7733 7.96263L48.912 8.01596Z" fill="black"/>
</svg>
