<svg width="64" height="64" viewBox="0 0 64 64" fill="none" xmlns="http://www.w3.org/2000/svg">
<path d="M42.1733 13.3333V16.6667H43.272C47.1413 16.6667 50.4187 19.6027 50.7013 23.4747L52.648 50.1413C52.96 54.432 49.496 58 45.2187 58H18.7813C14.504 58 11.04 54.432 11.352 50.1413L13.2987 23.4747C13.5813 19.6 16.8587 16.6667 20.728 16.6667H21.8267V13.3333C21.8267 9.24267 25.2027 6 29.2773 6H34.7253C38.7973 6 42.1733 9.24267 42.1733 13.3333ZM25.8267 13.3333V16.6667H38.1733V13.3333C38.1733 11.5333 36.6693 10 34.7253 10H29.2773C27.3307 10 25.8267 11.5333 25.8267 13.3333Z" fill="black"/>
</svg>
