<svg width="64" height="64" viewBox="0 0 64 64" fill="none" xmlns="http://www.w3.org/2000/svg">
<path d="M24.9787 6H25.0667C25.5971 6 26.1058 6.21071 26.4809 6.58579C26.856 6.96086 27.0667 7.46957 27.0667 8C27.0667 8.53043 26.856 9.03914 26.4809 9.41421C26.1058 9.78929 25.5971 10 25.0667 10C22.048 10 19.9013 10 18.224 10.1387C16.5707 10.272 15.544 10.5307 14.7307 10.944C13.1004 11.7748 11.7748 13.1004 10.944 14.7307C10.5307 15.544 10.2747 16.5707 10.1387 18.224C10.0027 19.904 10 22.048 10 25.0667C10 25.5971 9.78929 26.1058 9.41421 26.4809C9.03914 26.856 8.53043 27.0667 8 27.0667C7.46957 27.0667 6.96086 26.856 6.58579 26.4809C6.21071 26.1058 6 25.5971 6 25.0667V24.9787C6 22.0667 6 19.7573 6.152 17.8987C6.30667 15.9947 6.632 14.3867 7.37867 12.9173C8.5938 10.5333 10.5327 8.59532 12.9173 7.38133C14.384 6.632 15.9947 6.30667 17.8987 6.152C19.7573 6 22.0667 6 24.9787 6ZM45.7787 10.1387C44.0987 10.0027 41.952 10 38.9333 10C38.4029 10 37.8942 9.78929 37.5191 9.41421C37.144 9.03914 36.9333 8.53043 36.9333 8C36.9333 7.46957 37.144 6.96086 37.5191 6.58579C37.8942 6.21071 38.4029 6 38.9333 6H39.0213C41.9333 6 44.2427 6 46.1013 6.152C48.0053 6.30667 49.6133 6.632 51.0853 7.37867C53.4684 8.59425 55.4054 10.5331 56.6187 12.9173C57.368 14.384 57.6933 15.9947 57.848 17.8987C58 19.7573 58 22.0667 58 24.9787V25.0667C58 25.5971 57.7893 26.1058 57.4142 26.4809C57.0391 26.856 56.5304 27.0667 56 27.0667C55.4696 27.0667 54.9609 26.856 54.5858 26.4809C54.2107 26.1058 54 25.5971 54 25.0667C54 22.048 54 19.9013 53.8613 18.224C53.728 16.5707 53.4693 15.544 53.056 14.7307C52.2252 13.1004 50.8997 11.7748 49.2693 10.944C48.456 10.5307 47.432 10.2747 45.7787 10.1387ZM21.3333 19.3333C21.8638 19.3333 22.3725 19.544 22.7475 19.9191C23.1226 20.2942 23.3333 20.8029 23.3333 21.3333V25.3333C23.3333 25.8638 23.1226 26.3725 22.7475 26.7475C22.3725 27.1226 21.8638 27.3333 21.3333 27.3333C20.8029 27.3333 20.2942 27.1226 19.9191 26.7475C19.544 26.3725 19.3333 25.8638 19.3333 25.3333V21.3333C19.3333 20.8029 19.544 20.2942 19.9191 19.9191C20.2942 19.544 20.8029 19.3333 21.3333 19.3333ZM42.6667 19.3333C43.1971 19.3333 43.7058 19.544 44.0809 19.9191C44.456 20.2942 44.6667 20.8029 44.6667 21.3333V25.3333C44.6667 25.8638 44.456 26.3725 44.0809 26.7475C43.7058 27.1226 43.1971 27.3333 42.6667 27.3333C42.1362 27.3333 41.6275 27.1226 41.2525 26.7475C40.8774 26.3725 40.6667 25.8638 40.6667 25.3333V21.3333C40.6667 20.8029 40.8774 20.2942 41.2525 19.9191C41.6275 19.544 42.1362 19.3333 42.6667 19.3333ZM32 24C32.5304 24 33.0391 24.2107 33.4142 24.5858C33.7893 24.9609 34 25.4696 34 26V36.6667C34 37.1971 33.7893 37.7058 33.4142 38.0809C33.0391 38.456 32.5304 38.6667 32 38.6667H29.3333C28.8029 38.6667 28.2942 38.456 27.9191 38.0809C27.544 37.7058 27.3333 37.1971 27.3333 36.6667C27.3333 36.1362 27.544 35.6275 27.9191 35.2525C28.2942 34.8774 28.8029 34.6667 29.3333 34.6667H30V26C30 25.4696 30.2107 24.9609 30.5858 24.5858C30.9609 24.2107 31.4696 24 32 24ZM8 36.9333C8.53043 36.9333 9.03914 37.144 9.41421 37.5191C9.78929 37.8942 10 38.4029 10 38.9333C10 41.9547 10 44.0987 10.1387 45.776C10.272 47.4293 10.5307 48.456 10.944 49.2693C11.7748 50.8997 13.1004 52.2252 14.7307 53.056C15.544 53.4693 16.5707 53.7253 18.224 53.8613C19.904 53.9973 22.048 54 25.0667 54C25.5971 54 26.1058 54.2107 26.4809 54.5858C26.856 54.9609 27.0667 55.4696 27.0667 56C27.0667 56.5304 26.856 57.0391 26.4809 57.4142C26.1058 57.7893 25.5971 58 25.0667 58H24.9787C22.0667 58 19.7573 58 17.8987 57.848C15.9947 57.6933 14.3867 57.368 12.9173 56.6213C10.5337 55.4069 8.59577 53.469 7.38133 51.0853C6.632 49.6133 6.30667 48.0053 6.152 46.1013C6 44.2427 6 41.9333 6 39.0213V38.9333C6 38.4029 6.21071 37.8942 6.58579 37.5191C6.96086 37.144 7.46957 36.9333 8 36.9333ZM56 36.9333C56.5304 36.9333 57.0391 37.144 57.4142 37.5191C57.7893 37.8942 58 38.4029 58 38.9333V39.0213C58 41.9333 58 44.2427 57.848 46.1013C57.6933 48.0053 57.368 49.6133 56.6213 51.0853C55.4064 53.468 53.4686 55.4049 51.0853 56.6187C49.6133 57.368 48.0053 57.6933 46.1013 57.848C44.2427 58 41.9333 58 39.0213 58H38.9333C38.4029 58 37.8942 57.7893 37.5191 57.4142C37.144 57.0391 36.9333 56.5304 36.9333 56C36.9333 55.4696 37.144 54.9609 37.5191 54.5858C37.8942 54.2107 38.4029 54 38.9333 54C41.9547 54 44.0987 54 45.776 53.8613C47.4293 53.728 48.456 53.4693 49.2693 53.056C50.8997 52.2252 52.2252 50.8997 53.056 49.2693C53.4693 48.456 53.7253 47.4293 53.8613 45.776C53.9973 44.096 54 41.952 54 38.9333C54 38.4029 54.2107 37.8942 54.5858 37.5191C54.9609 37.144 55.4696 36.9333 56 36.9333ZM22.5867 42.5867C22.9617 42.2121 23.47 42.0018 24 42.0018C24.53 42.0018 25.0383 42.2121 25.4133 42.5867C26.9547 44.1253 29.3973 45 32 45C34.6027 45 37.0453 44.1253 38.5867 42.5867C38.7698 42.3902 38.9906 42.2326 39.2359 42.1233C39.4812 42.0139 39.7461 41.9552 40.0146 41.9504C40.2831 41.9457 40.5499 41.9951 40.7989 42.0957C41.048 42.1963 41.2742 42.346 41.4641 42.5359C41.654 42.7258 41.8037 42.952 41.9043 43.2011C42.0049 43.4501 42.0543 43.7169 42.0496 43.9854C42.0448 44.2539 41.9861 44.5188 41.8768 44.7641C41.7674 45.0094 41.6098 45.2302 41.4133 45.4133C38.9547 47.8747 35.3973 49 32 49C28.6027 49 25.0453 47.8747 22.5867 45.4133C22.2121 45.0383 22.0018 44.53 22.0018 44C22.0018 43.47 22.2121 42.9617 22.5867 42.5867Z" fill="black"/>
</svg>
