<svg width="64" height="64" viewBox="0 0 64 64" fill="none" xmlns="http://www.w3.org/2000/svg">
<path d="M32 28.6667C31.116 28.6667 30.2681 29.0179 29.643 29.643C29.0179 30.2681 28.6667 31.1159 28.6667 32C28.6667 32.8841 29.0179 33.7319 29.643 34.357C30.2681 34.9821 31.116 35.3333 32 35.3333C32.8841 35.3333 33.7319 34.9821 34.357 34.357C34.9821 33.7319 35.3333 32.8841 35.3333 32C35.3333 31.1159 34.9821 30.2681 34.357 29.643C33.7319 29.0179 32.8841 28.6667 32 28.6667ZM41.3227 15.6267C41.312 15.8267 41.28 16.032 41.2507 16.24C41.5173 16.0284 41.7893 15.8409 42.0667 15.6773L42.4853 15.4507C46.856 13.224 52.3093 14.9093 54.7467 19.1307L54.9707 19.5467C57.1013 23.7147 55.7867 29.008 51.8053 31.5947L51.4 31.8427C51.1156 31.9991 50.816 32.1404 50.5013 32.2667C50.8178 32.3893 51.1173 32.5307 51.4 32.6907L51.8053 32.9387C55.7867 35.5253 57.1013 40.8213 54.9707 44.9867L54.7467 45.4C52.3093 49.624 46.8533 51.3093 42.4853 49.0827L42.064 48.8533C41.7815 48.6819 41.5098 48.4931 41.2507 48.288C41.3022 48.6258 41.3298 48.9564 41.3333 49.28L41.32 49.7547C41.0667 54.6533 36.88 58.5333 32 58.5333C27.12 58.5333 22.936 54.6533 22.68 49.7547L22.6667 49.28C22.6684 48.9564 22.6951 48.6258 22.7467 48.288C22.5849 48.4213 22.4196 48.5458 22.2507 48.6613L21.936 48.8533C17.6373 51.3333 12.1253 49.8587 9.49867 45.8L9.25334 45.4C6.736 41.0427 8.168 35.2507 12.6027 32.6907L12.928 32.512C13.1093 32.4231 13.2996 32.3413 13.4987 32.2667C13.3053 32.1914 13.1149 32.1087 12.928 32.0187L12.6027 31.8427C8.168 29.2827 6.736 23.4933 9.25334 19.1333L9.49867 18.7333C12.1253 14.6747 17.64 13.1973 21.936 15.6773L22.2507 15.872C22.4196 15.9876 22.5849 16.1102 22.7467 16.24C22.6997 15.9131 22.6729 15.5836 22.6667 15.2533C22.6667 10.1333 26.9653 6 32 6L32.4693 6.01333C37.296 6.26133 41.3333 10.2933 41.3333 15.256L41.3227 15.6267Z" fill="black"/>
</svg>
