<svg width="44" height="52" viewBox="0 0 44 52" fill="none" xmlns="http://www.w3.org/2000/svg">
<path d="M17.9998 23.3334V18.0587L21.9998 15.1414L25.9998 18.0587V23.3334C25.9998 23.5102 25.9296 23.6797 25.8046 23.8048C25.6795 23.9298 25.51 24 25.3332 24H18.6665C18.4897 24 18.3201 23.9298 18.1951 23.8048C18.0701 23.6797 17.9998 23.5102 17.9998 23.3334Z" fill="black"/>
<path d="M6.37318 6.39468C10.539 2.29184 16.1529 -0.00545659 21.9998 9.73281e-06C27.8558 9.73281e-06 33.4772 2.29601 37.6265 6.39468C41.3838 10.1013 43.3412 14.2507 43.8585 18.56C44.3732 22.832 43.4532 27.12 41.6985 31.1413C38.2158 39.1413 31.2932 46.416 24.6532 51.1493C23.8792 51.7031 22.9515 52.0008 21.9998 52.0008C21.0482 52.0008 20.1204 51.7031 19.3465 51.1493C12.7065 46.416 5.78384 39.1387 2.29851 31.1413C0.546509 27.12 -0.370825 22.832 0.141175 18.5573C0.658509 14.2507 2.61584 10.104 6.37318 6.39468ZM23.1785 11.0507C22.8362 10.801 22.4235 10.6665 21.9998 10.6665C21.5762 10.6665 21.1635 10.801 20.8212 11.0507L14.8212 15.424C14.5667 15.6097 14.3596 15.8528 14.2169 16.1336C14.0742 16.4144 13.9998 16.725 13.9998 17.04V23.3333C13.9998 25.9093 16.0905 28 18.6665 28H25.3332C26.5709 28 27.7578 27.5083 28.633 26.6332C29.5082 25.758 29.9998 24.571 29.9998 23.3333V17.04C29.9999 16.725 29.9255 16.4144 29.7828 16.1336C29.64 15.8528 29.433 15.6097 29.1785 15.424L23.1785 11.0507Z" fill="black"/>
</svg>
