<svg width="64" height="64" viewBox="0 0 64 64" fill="none" xmlns="http://www.w3.org/2000/svg">
<path d="M28.4999 29.3334V24.0587L32.4999 21.1414L36.4999 24.0587V29.3334C36.4999 29.5102 36.4296 29.6797 36.3046 29.8048C36.1796 29.9298 36.01 30 35.8332 30H29.1665C28.9897 30 28.8202 29.9298 28.6951 29.8048C28.5701 29.6797 28.4999 29.5102 28.4999 29.3334Z" fill="black"/>
<path d="M16.8732 12.3947C21.039 8.29184 26.6529 5.99454 32.4998 6.00001C38.3558 6.00001 43.9772 8.29601 48.1265 12.3947C51.8838 16.1013 53.8412 20.2507 54.3585 24.56C54.8732 28.832 53.9532 33.12 52.1985 37.1413C48.7158 45.1413 41.7932 52.416 35.1532 57.1493C34.3792 57.7031 33.4515 58.0008 32.4998 58.0008C31.5482 58.0008 30.6204 57.7031 29.8465 57.1493C23.2065 52.416 16.2838 45.1387 12.7985 37.1413C11.0465 33.12 10.1292 28.832 10.6412 24.5573C11.1585 20.2507 13.1158 16.104 16.8732 12.3947ZM33.6785 17.0507C33.3362 16.801 32.9235 16.6665 32.4998 16.6665C32.0762 16.6665 31.6635 16.801 31.3212 17.0507L25.3212 21.424C25.0667 21.6097 24.8596 21.8528 24.7169 22.1336C24.5742 22.4144 24.4998 22.725 24.4998 23.04V29.3333C24.4998 31.9093 26.5905 34 29.1665 34H35.8332C37.0709 34 38.2578 33.5083 39.133 32.6332C40.0082 31.758 40.4998 30.571 40.4998 29.3333V23.04C40.4999 22.725 40.4255 22.4144 40.2828 22.1336C40.14 21.8528 39.933 21.6097 39.6785 21.424L33.6785 17.0507Z" fill="black"/>
</svg>
